<?xml version="1.0" encoding="UTF-8"?>
<!DOCTYPE svg PUBLIC "-//W3C//DTD SVG 1.1//EN" "http://www.w3.org/Graphics/SVG/1.1/DTD/svg11.dtd">
<!-- Creator: CorelDRAW -->
<svg xmlns="http://www.w3.org/2000/svg" xml:space="preserve" width="2048px" height="2048px" style="shape-rendering:geometricPrecision; text-rendering:geometricPrecision; image-rendering:optimizeQuality; fill-rule:evenodd; clip-rule:evenodd"
viewBox="0 0 2048 2048"
 xmlns:xlink="http://www.w3.org/1999/xlink">
 <defs>
  <style type="text/css">
   <![CDATA[
    .fil2 {fill:none}
    .fil4 {fill:#37474F}
    .fil5 {fill:#455A64}
    .fil3 {fill:#80DEEA}
    .fil1 {fill:#FF7043}
    .fil0 {fill:#FFAB91}
    .fil6 {fill:#FFFFFE}
   ]]>
  </style>
   <clipPath id="id0">
    <path d="M1024 0c565.541,0 1024,458.459 1024,1024 0,565.541 -458.459,1024 -1024,1024 -565.541,0 -1024,-458.459 -1024,-1024 0,-565.541 458.459,-1024 1024,-1024z"/>
   </clipPath>
 </defs>
 <g id="Layer_x0020_1">
  <metadata id="CorelCorpID_0Corel-Layer"/>
  <path class="fil0" d="M1024 0c565.541,0 1024,458.459 1024,1024 0,565.541 -458.459,1024 -1024,1024 -565.541,0 -1024,-458.459 -1024,-1024 0,-565.541 458.459,-1024 1024,-1024z"/>
  <g style="clip-path:url(#id0)">
   <g id="_308720896">
    <g>
     <polygon id="_3030936161" class="fil1" points="1155.01,1053.23 2290.89,2189.11 2209.24,2231.9 1073.36,1096.02 "/>
     <polygon id="_303093856" class="fil1" points="1209.89,1158 2345.77,2293.89 2345.88,2294.09 2345.99,2294.3 2346.1,2294.5 2346.21,2294.71 2346.32,2294.92 2346.43,2295.13 2346.53,2295.34 2346.64,2295.55 1210.76,1159.66 1210.65,1159.45 1210.55,1159.25 1210.44,1159.04 1210.33,1158.83 1210.22,1158.62 1210.11,1158.42 1210,1158.21 "/>
     <polygon id="_303094264" class="fil1" points="1210.76,1159.66 2346.64,2295.55 2346.64,2295.55 2346.64,2295.55 2346.65,2295.56 2346.65,2295.56 1210.77,1159.68 1210.76,1159.68 1210.76,1159.67 1210.76,1159.67 "/>
     <polygon id="_303094360" class="fil1" points="1089.04,1125.95 2224.92,2261.83 2210.04,2266.85 2195.06,2271.14 2180,2274.71 2164.87,2277.58 2149.71,2279.75 2134.53,2281.23 2119.35,2282.02 2104.2,2282.13 2089.1,2281.57 2074.07,2280.34 2059.13,2278.45 2044.31,2275.92 2029.64,2272.74 2015.12,2268.92 2000.78,2264.47 1986.65,2259.4 1972.75,2253.72 1959.1,2247.42 1945.73,2240.52 1932.64,2233.03 1919.88,2224.94 1907.45,2216.28 1895.39,2207.04 1883.71,2197.24 1872.44,2186.87 736.557,1050.99 747.83,1061.35 759.508,1071.16 771.572,1080.4 783.997,1089.06 796.763,1097.14 809.845,1104.64 823.222,1111.54 836.872,1117.83 850.772,1123.52 864.902,1128.59 879.236,1133.04 893.754,1136.86 908.434,1140.04 923.252,1142.57 938.186,1144.46 953.215,1145.68 968.316,1146.24 983.466,1146.13 998.644,1145.34 1013.83,1143.87 1028.99,1141.7 1044.12,1138.83 1059.18,1135.25 1074.16,1130.96 "/>
     <polygon id="_303094576" class="fil1" points="1129.36,1202.9 2265.24,2338.79 2265.17,2338.67 2265.11,2338.55 2265.04,2338.44 2264.97,2338.32 2264.91,2338.2 2264.85,2338.08 2264.78,2337.97 2264.72,2337.85 1128.84,1201.97 1128.9,1202.08 1128.96,1202.2 1129.03,1202.32 1129.09,1202.44 1129.16,1202.55 1129.22,1202.67 1129.29,1202.79 "/>
     <polygon id="_303094648" class="fil1" points="1128.84,1201.97 2264.72,2337.85 2264.71,2337.84 2264.71,2337.84 2264.71,2337.84 2264.71,2337.83 1128.83,1201.95 1128.83,1201.95 1128.83,1201.96 1128.83,1201.96 "/>
     <polygon id="_303094072" class="fil1" points="1226.17,576.342 2362.05,1712.22 2373.08,1725.07 2383.52,1738.56 2393.36,1752.67 2402.56,1767.4 2411.09,1782.74 1275.21,646.854 1266.68,631.515 1257.48,616.785 1247.64,602.673 1237.19,589.19 "/>
     <polygon id="_303094120" class="fil1" points="1275.21,646.854 2411.09,1782.74 2414.08,1788.57 2416.94,1794.43 2419.68,1800.32 2422.29,1806.24 2424.79,1812.18 2427.16,1818.15 2429.42,1824.13 2431.55,1830.15 2433.57,1836.18 2435.47,1842.23 2437.25,1848.29 2438.91,1854.37 2440.45,1860.47 2441.88,1866.57 2443.19,1872.69 2444.39,1878.82 2445.47,1884.96 2446.43,1891.1 2447.28,1897.24 2448.02,1903.4 2448.64,1909.55 2449.15,1915.7 2449.55,1921.85 2449.84,1928 2450.01,1934.15 2450.08,1940.29 2450.03,1946.43 2449.87,1952.55 2449.61,1958.67 2449.23,1964.77 2448.74,1970.87 2448.15,1976.94 1312.27,841.061 1312.86,834.983 1313.35,828.89 1313.72,822.785 1313.99,816.669 1314.15,810.543 1314.2,804.409 1314.13,798.268 1313.96,792.121 1313.67,785.971 1313.27,779.819 1312.76,773.665 1312.14,767.513 1311.4,761.362 1310.55,755.215 1309.58,749.073 1308.51,742.938 1307.31,736.81 1306,730.692 1304.57,724.584 1303.03,718.49 1301.36,712.408 1299.58,706.343 1297.69,700.294 1295.67,694.263 1293.54,688.252 1291.28,682.263 1288.91,676.296 1286.41,670.353 1283.79,664.437 1281.06,658.547 1278.2,652.685 "/>
     <polygon id="_303094168" class="fil1" points="1312.27,841.061 2448.15,1976.94 2447.08,1985.84 2445.78,1994.69 2444.25,2003.5 2442.5,2012.26 2440.51,2020.97 2438.3,2029.62 2435.87,2038.22 2433.22,2046.74 2430.34,2055.19 2427.24,2063.57 2423.93,2071.86 2420.4,2080.07 2416.65,2088.19 2412.7,2096.22 2408.52,2104.14 2404.14,2111.96 2399.55,2119.67 2394.75,2127.27 2389.75,2134.75 2384.54,2142.11 2379.13,2149.34 2373.51,2156.43 2367.7,2163.39 2361.68,2170.21 2355.47,2176.88 2349.06,2183.39 2342.46,2189.76 2335.67,2195.96 2328.68,2202 2321.5,2207.86 2314.14,2213.56 2306.58,2219.07 1170.7,1083.19 1178.26,1077.67 1185.62,1071.98 1192.8,1066.11 1199.79,1060.08 1206.58,1053.87 1213.18,1047.51 1219.59,1040.99 1225.8,1034.32 1231.82,1027.51 1237.63,1020.55 1243.24,1013.45 1248.66,1006.22 1253.87,998.867 1258.87,991.389 1263.67,983.791 1268.26,976.079 1272.64,968.258 1276.81,960.334 1280.77,952.309 1284.52,944.189 1288.05,935.979 1291.36,927.685 1294.46,919.308 1297.33,910.856 1299.99,902.333 1302.42,893.742 1304.63,885.09 1306.62,876.38 1308.37,867.617 1309.9,858.807 1311.2,849.954 "/>
     <polygon id="_303094720" class="fil1" points="1209.88,1157.99 2345.76,2293.87 2345.76,2293.87 2345.77,2293.88 2345.77,2293.88 2345.77,2293.89 1209.89,1158 1209.89,1158 1209.88,1158 1209.88,1157.99 "/>
     <polygon id="_303095008" class="fil1" points="1073.36,1096.02 2209.24,2231.9 2224.92,2261.83 1089.04,1125.95 "/>
     <polygon id="_303094984" class="fil1" points="1129.34,1202.93 2265.22,2338.82 2265.23,2338.81 2265.23,2338.8 2265.23,2338.79 2265.24,2338.79 1129.36,1202.9 1129.35,1202.91 1129.35,1202.92 1129.35,1202.93 "/>
     <polygon id="_303094768" class="fil1" points="1211.02,1160.16 2346.9,2296.04 2346.89,2296.04 2346.89,2296.04 2346.89,2296.04 2346.88,2296.04 1211,1160.16 1211,1160.16 1211.01,1160.16 1211.01,1160.16 "/>
     <polygon id="_303062608" class="fil1" points="1210.77,1159.68 2346.65,2295.56 2346.9,2296.04 1211.02,1160.16 "/>
     <polygon id="_303062680" class="fil1" points="1249.82,1181.17 2385.7,2317.06 2387.13,2318.57 2388.51,2320.13 2389.86,2321.73 2391.17,2323.38 2392.43,2325.08 2393.65,2326.81 2394.83,2328.59 2395.96,2330.42 2397.05,2332.29 2398.08,2334.2 1262.2,1198.32 1261.17,1196.41 1260.08,1194.54 1258.95,1192.71 1257.77,1190.93 1256.55,1189.19 1255.29,1187.5 1253.98,1185.85 1252.63,1184.25 1251.24,1182.69 "/>
     <polygon id="_303062992" class="fil1" points="1262.2,1198.32 2398.08,2334.2 2543.48,2611.89 1407.6,1476 "/>
     <polygon id="_303062512" class="fil1" points="1129.34,1202.93 2265.22,2338.82 2363.19,2525.91 1227.3,1390.03 "/>
     <polygon id="_303062824" class="fil1" points="1376.47,1575.56 2512.35,2711.45 2508.95,2713.12 2505.51,2714.61 2502.02,2715.91 2498.51,2717.02 2494.97,2717.94 2491.42,2718.69 2487.85,2719.25 2484.27,2719.63 2480.69,2719.84 2477.12,2719.88 2473.57,2719.73 2470.03,2719.42 2466.51,2718.94 2463.03,2718.3 2459.59,2717.48 2456.19,2716.51 2452.84,2715.37 2449.54,2714.07 2446.31,2712.62 2443.15,2711.01 2440.06,2709.25 2437.06,2707.34 2434.14,2705.27 2431.31,2703.06 2428.59,2700.7 1292.71,1564.82 1295.43,1567.18 1298.26,1569.39 1301.17,1571.45 1304.18,1573.37 1307.27,1575.13 1310.43,1576.74 1313.66,1578.19 1316.95,1579.49 1320.31,1580.62 1323.71,1581.6 1327.15,1582.41 1330.63,1583.06 1334.15,1583.54 1337.68,1583.85 1341.24,1583.99 1344.81,1583.96 1348.39,1583.75 1351.96,1583.37 1355.53,1582.8 1359.09,1582.06 1362.63,1581.13 1366.14,1580.02 1369.62,1578.73 1373.07,1577.24 "/>
     <polygon id="_303062776" class="fil1" points="1407.6,1476 2543.48,2611.89 2545.16,2615.29 2546.65,2618.74 2547.95,2622.23 2549.06,2625.75 2549.99,2629.29 2550.74,2632.85 2551.3,2636.43 2551.69,2640.01 2551.9,2643.59 2551.93,2647.16 2551.79,2650.72 2551.48,2654.26 2551,2657.78 2550.35,2661.26 2549.53,2664.71 2548.56,2668.11 2547.42,2671.47 2546.12,2674.76 2544.67,2678 2543.06,2681.16 2541.3,2684.25 2539.38,2687.26 2537.32,2690.17 2535.11,2693 2532.75,2695.72 2530.25,2698.34 2527.61,2700.84 2524.83,2703.23 2521.91,2705.49 2518.86,2707.61 2515.67,2709.6 2512.35,2711.45 1376.47,1575.56 1379.79,1573.72 1382.97,1571.73 1386.03,1569.6 1388.95,1567.35 1391.73,1564.96 1394.37,1562.46 1396.87,1559.84 1399.22,1557.12 1401.44,1554.29 1403.5,1551.37 1405.41,1548.37 1407.18,1545.28 1408.79,1542.11 1410.24,1538.88 1411.54,1535.59 1412.68,1532.23 1413.65,1528.83 1414.47,1525.38 1415.11,1521.9 1415.59,1518.38 1415.91,1514.84 1416.05,1511.28 1416.01,1507.7 1415.81,1504.12 1415.42,1500.54 1414.86,1496.97 1414.11,1493.41 1413.18,1489.86 1412.07,1486.35 1410.77,1482.86 1409.28,1479.41 "/>
    </g>
    <path id="_308721088" class="fil1" d="M1209.88 1157.99c0.00236221,0.00590552 0.00590552,0.011811 0.00944883,0.0177165 0.3,0.546851 0.590552,1.10079 0.869292,1.65945 0.00236221,0.00590552 0.00472441,0.011811 0.00826772,0.0165354l-0.887009 -1.6937zm-81.052 43.9618l0.516142 0.98504c0.00472441,-0.00944883 0.00826772,-0.0200788 0.0129921,-0.0295276 -0.177165,-0.31063 -0.350788,-0.624804 -0.520867,-0.938977 -0.00236221,-0.00590552 -0.00590552,-0.0106299 -0.00826772,-0.0165354zm-314.027 -698.938c166.928,-87.4075 373.048,-22.9866 460.413,143.843 32.4673,62.0351 43.9571,129.452 37.0571,194.208 -10.1587,95.0398 -60.0107,184.299 -141.567,242.124l-15.691 -29.9599 -81.652 42.7902 15.6744 29.9362c-158,57.3248 -337.99,-9.59883 -418.127,-162.63 -32.452,-61.9784 -43.9429,-129.389 -37.0335,-194.111 11.6811,-109.491 76.0619,-211.318 180.926,-266.201zm396.216 657.148c-0.00590552,-0.0011811 -0.011811,-0.00236221 -0.0177165,-0.00236221 -0.0767717,-0.159449 -0.154725,-0.317717 -0.232677,-0.475985l0.250394 0.478347zm0 0c21.2008,4.16221 40.3914,17.55 51.1855,38.1579l145.395 277.687c18.9543,36.0756 4.96654,80.6812 -31.1303,99.5611 -36.0071,18.9036 -80.5973,4.97599 -99.482,-31.1563l-145.44 -277.67c-10.7823,-20.6173 -10.852,-44.0126 -2.20158,-63.8044l97.9607 187.091 81.7016 -42.7666 -97.9891 -187.1z"/>
   </g>
  </g>
  <path class="fil2" d="M1024 0c565.541,0 1024,458.459 1024,1024 0,565.541 -458.459,1024 -1024,1024 -565.541,0 -1024,-458.459 -1024,-1024 0,-565.541 458.459,-1024 1024,-1024z"/>
  <polygon class="fil3" points="1309.01,1347.26 1227.31,1390.02 1073.36,1096.02 1155.01,1053.23 "/>
  <path class="fil4" d="M1407.6 1476c18.9543,36.0756 4.96654,80.6812 -31.1303,99.5599 -36.0071,18.9047 -80.5973,4.97717 -99.482,-31.1551l-145.44 -277.67c-18.861,-36.0685 -4.94174,-80.6351 31.0949,-99.5398 36.0898,-18.8917 80.6776,-4.93701 99.5611,31.1185l145.396 277.687z"/>
  <path class="fil5" d="M633.875 769.212c-6.90827,64.7197 4.5815,132.131 37.0335,194.11 87.3898,166.882 293.528,231.364 460.399,143.981 104.867,-54.9178 169.26,-156.742 180.963,-266.243l-63.2705 -6.7004c-9.53268,89.0894 -61.9217,171.936 -147.228,216.625 -135.689,71.0493 -303.41,18.6095 -374.515,-117.191 -26.3788,-50.4095 -35.7414,-105.232 -30.111,-157.88l-63.2705 -6.7004zm180.926 -266.202c-104.863,54.8823 -169.245,156.711 -180.926,266.202l63.2682 6.7004c9.50079,-89.0812 61.8745,-171.946 147.173,-216.594 135.724,-71.0705 303.493,-18.665 374.6,117.082 26.4,50.439 35.7378,105.294 30.0839,157.96l63.2705 6.7004c6.90119,-64.754 -4.58859,-132.171 -37.0559,-194.206 -87.365,-166.831 -293.485,-231.249 -460.413,-143.843z"/>
  <path class="fil3" d="M1215.32 1185.01c2.67638,-25.2697 -15.7417,-48.0603 -41.0103,-50.7367 -25.2709,-2.67992 -48.0544,15.7536 -50.7307,41.0233 -2.67638,25.2685 15.7406,48.0626 41.0126,50.739 25.2685,2.67638 48.052,-15.7547 50.7284,-41.0256z"/>
  <path class="fil6" d="M881.185 763.517l191.692 0c19.7669,0 35.9422,19.1575 35.9422,42.567l0 184.46 -263.576 0 0 -184.46c0,-23.4118 16.174,-42.567 35.9422,-42.567z"/>
  <path class="fil6" d="M977.031 591.507c43.8851,0 79.4599,35.5736 79.4599,79.4587 0,43.8851 -35.5748,79.4599 -79.4599,79.4599 -43.8851,0 -79.4599,-35.5748 -79.4599,-79.4599 0,-43.8851 35.5748,-79.4587 79.4599,-79.4587z"/>
 </g>
</svg>
